<?xml version="1.0" encoding="UTF-8" standalone="no"?>
<!DOCTYPE svg PUBLIC "-//W3C//DTD SVG 1.1//EN" "http://www.w3.org/Graphics/SVG/1.1/DTD/svg11.dtd">
<svg width="100%" height="100%" viewBox="0 0 1024 1024" version="1.1" xmlns="http://www.w3.org/2000/svg" xmlns:xlink="http://www.w3.org/1999/xlink" xml:space="preserve" xmlns:serif="http://www.serif.com/" style="fill-rule:evenodd;clip-rule:evenodd;stroke-linejoin:round;stroke-miterlimit:2;">
    <g transform="matrix(1.0999,0,0,1.0999,-135.346,-93.0074)">
        <g>
            <g transform="matrix(1.33975,0,0,1.33975,-93.0185,-32.1407)">
                <path d="M520.5,95.5C493.861,94.386 468.528,99.72 444.5,111.5C460.047,101.93 477.047,96.43 495.5,95C503.856,94.335 512.189,94.501 520.5,95.5Z" style="fill:rgb(22,25,25);"/>
            </g>
            <g transform="matrix(1.33975,0,0,1.33975,-93.0185,-32.1407)">
                <path d="M663.5,164.5C675.652,167.413 684.652,174.413 690.5,185.5C692.52,196.72 693.02,208.053 692,219.5C690.66,226.521 688.326,233.188 685,239.5C684.261,240.574 683.261,241.241 682,241.5C671.414,237.313 660.581,233.979 649.5,231.5C647.337,230.531 645.004,229.698 642.5,229C641.874,228.25 641.374,227.416 641,226.5C640.766,219.944 639.933,213.611 638.5,207.5C638.147,203.087 637.314,198.754 636,194.5C633.492,186.636 630.825,178.97 628,171.5C639.01,165.265 650.843,162.931 663.5,164.5Z" style="fill:rgb(245,239,226);"/>
            </g>
            <g transform="matrix(1.33975,0,0,1.33975,-93.0185,-32.1407)">
                <path d="M622.5,236.5C641.198,241.45 659.864,246.95 678.5,253C685.113,255.305 691.113,258.638 696.5,263C669.133,272.201 651.466,290.701 643.5,318.5C641.926,319.631 640.259,319.798 638.5,319C626.925,315.357 615.259,312.19 603.5,309.5C585.798,307.982 571.131,300.649 559.5,287.5C565.157,282.676 570.323,277.343 575,271.5C579.198,262.266 584.032,253.433 589.5,245C599.177,237.33 610.177,234.497 622.5,236.5Z" style="fill:rgb(251,216,192);"/>
            </g>
            <g transform="matrix(1.33975,0,0,1.33975,-91.6788,-32.1407)">
                <path d="M732.5,384.5C723.363,408.475 708.363,427.975 687.5,443C682.043,446.351 676.876,446.185 672,442.5C670.007,433.586 668.34,424.586 667,415.5C662.43,392.617 649.93,375.95 629.5,365.5C614.988,362.311 600.322,359.811 585.5,358C578.104,356.59 571.104,354.09 564.5,350.5C558.48,353.562 552.147,355.729 545.5,357C536.836,358.203 528.169,359.37 519.5,360.5C530.284,384.074 543.117,406.408 558,427.5C562.735,435.248 567.069,443.248 571,451.5C594.73,463.897 613.23,481.73 626.5,505C653.917,519.918 675.584,540.752 691.5,567.5C697.229,577.956 702.729,588.623 708,599.5C714.177,614.606 719.677,629.273 724.5,643.5C726.298,647.741 727.632,652.241 728.5,657C728.375,658.627 727.875,660.127 727,661.5C712.524,677.971 694.858,689.638 674,696.5C674.384,705.483 674.384,714.483 674,723.5C656.951,738.114 637.784,749.281 616.5,757C554.421,778.544 491.754,780.21 428.5,762C412.29,757.394 396.623,751.394 381.5,744L379,741.5C378.814,734.586 378.314,727.753 377.5,721C337.553,712.282 303.053,693.782 274,665.5C272.85,663.246 272.516,660.913 273,658.5C285.078,618.996 304.412,583.662 331,552.5C355.255,526.602 384.088,507.435 417.5,495C422.681,483.471 428.514,472.304 435,461.5C440.419,455.41 446.919,450.91 454.5,448C455.357,447.311 456.023,446.478 456.5,445.5C453.175,438.179 449.341,431.179 445,424.5C431.939,405.102 419.272,385.435 407,365.5C401.015,355.198 395.849,344.531 391.5,333.5C385.574,318.554 380.741,303.221 377,287.5C373.865,270.152 372.031,252.819 371.5,235.5C372.194,220.362 375.194,205.695 380.5,191.5C372.523,189.191 364.523,189.024 356.5,191C351.896,195.603 348.062,200.77 345,206.5C341.188,212.003 336.855,212.67 332,208.5C332.99,194.704 339.49,184.204 351.5,177C363.425,174.629 375.425,172.629 387.5,171C397.504,152.017 410.837,135.684 427.5,122C432.888,117.977 438.554,114.477 444.5,111.5C468.528,99.72 493.861,94.386 520.5,95.5C563.56,101.182 597.227,121.849 621.5,157.5C634.938,150.213 649.271,147.546 664.5,149.5C674.38,150.732 683.047,154.566 690.5,161C697.509,160.802 704.176,162.136 710.5,165C715.259,169.491 716.759,174.991 715,181.5C712.977,184.52 710.31,186.854 707,188.5C708.895,209.018 705.395,228.518 696.5,247C696.645,247.772 696.978,248.439 697.5,249C724.862,264.898 739.862,288.731 742.5,320.5C743.494,342.534 740.161,363.867 732.5,384.5ZM690.5,185.5C684.652,174.413 675.652,167.413 663.5,164.5C650.843,162.931 639.01,165.265 628,171.5C630.825,178.97 633.492,186.636 636,194.5C637.314,198.754 638.147,203.087 638.5,207.5C639.933,213.611 640.766,219.944 641,226.5C641.374,227.416 641.874,228.25 642.5,229C645.004,229.698 647.337,230.531 649.5,231.5C660.581,233.979 671.414,237.313 682,241.5C683.261,241.241 684.261,240.574 685,239.5C688.326,233.188 690.66,226.521 692,219.5C693.02,208.053 692.52,196.72 690.5,185.5ZM622.5,236.5C610.177,234.497 599.177,237.33 589.5,245C584.032,253.433 579.198,262.266 575,271.5C570.323,277.343 565.157,282.676 559.5,287.5C571.131,300.649 585.798,307.982 603.5,309.5C615.259,312.19 626.925,315.357 638.5,319C640.259,319.798 641.926,319.631 643.5,318.5C651.466,290.701 669.133,272.201 696.5,263C691.113,258.638 685.113,255.305 678.5,253C659.864,246.95 641.198,241.45 622.5,236.5ZM609.5,323.5C598.22,321.763 587.22,318.93 576.5,315C565.914,310.247 556.914,303.413 549.5,294.5C542.702,299.772 540.868,306.439 544,314.5C553.548,331.704 568.048,342.204 587.5,346C603.955,348.231 620.289,351.065 636.5,354.5C637.335,347.498 637.835,340.498 638,333.5C635.057,331.625 631.89,330.125 628.5,329C622.004,327.297 615.671,325.464 609.5,323.5Z" style="fill:rgb(29,39,44);"/>
            </g>
            <g transform="matrix(1.33975,0,0,1.33975,-93.0185,-32.1407)">
                <path d="M604.5,259.5C614.078,259.039 621.578,262.706 627,270.5C630.372,279.079 627.539,281.912 618.5,279C607.745,276.604 603.078,270.104 604.5,259.5Z" style="fill:rgb(30,40,44);"/>
            </g>
            <g transform="matrix(1.33975,0,0,1.33975,-93.0185,-32.1407)">
                <path d="M371.5,235.5C372.031,252.819 373.865,270.152 377,287.5C380.741,303.221 385.574,318.554 391.5,333.5C376.786,302.6 370.119,269.933 371.5,235.5Z" style="fill:rgb(13,17,18);"/>
            </g>
            <g transform="matrix(1.33975,0,0,1.33975,-93.0185,-32.1407)">
                <path d="M609.5,323.5C615.671,325.464 622.004,327.297 628.5,329C631.89,330.125 635.057,331.625 638,333.5C637.835,340.498 637.335,347.498 636.5,354.5C620.289,351.065 603.955,348.231 587.5,346C568.048,342.204 553.548,331.704 544,314.5C540.868,306.439 542.702,299.772 549.5,294.5C556.914,303.413 565.914,310.247 576.5,315C587.22,318.93 598.22,321.763 609.5,323.5Z" style="fill:rgb(250,216,193);"/>
            </g>
            <g transform="matrix(1.33975,0,0,1.33975,-93.0185,-32.1407)">
                <path d="M462.5,431.5C446.691,406.564 430.858,381.564 415,356.5C406.464,341.096 399.297,325.096 393.5,308.5C380.778,270.308 380.278,231.975 392,193.5C392.454,193.242 397.543,191.552 399.5,191.5C409.187,192.104 418.854,192.937 428.5,194C431.025,194.424 436.329,197.748 437,198.5C435.453,220.767 439.786,241.767 450,261.5C462.541,279.855 480.041,288.855 502.5,288.5C506.859,288.351 511.192,288.017 515.5,287.5C540.716,284.443 557.883,271.109 567,247.5C571.66,233.878 574.493,219.878 575.5,205.5C576.417,204.873 577.417,204.539 578.5,204.5C584.162,202.851 589.662,203.518 595,206.5C595.23,212.932 596.063,219.265 597.5,225.5C591.294,228.43 585.627,232.097 580.5,236.5C578.167,239.003 576.001,241.669 574,244.5C570.041,256.929 563.208,267.429 553.5,276C549.008,278.998 544.675,282.165 540.5,285.5C531.683,292.781 528.517,302.115 531,313.5C534.705,324.879 541.205,334.379 550.5,342C549.255,342.791 547.922,343.291 546.5,343.5C522.874,346.669 499.874,344.169 477.5,336C470.995,333.583 464.995,330.417 459.5,326.5C450.343,321.744 442.009,315.744 434.5,308.5L433.5,310.5C434.767,312.703 435.767,315.037 436.5,317.5C453.736,354.233 481.569,379.233 520,392.5C520.383,391.944 520.883,391.611 521.5,391.5C538.087,415.656 552.921,440.989 566,467.5C576.986,493.054 579.319,519.388 573,546.5C569.404,561.287 565.404,575.954 561,590.5C553.242,579.986 545.242,569.653 537,559.5C522.329,543.329 507.495,527.329 492.5,511.5C488.869,508.371 485.369,505.037 482,501.5C480.796,493.228 480.129,484.894 480,476.5C479.317,471.766 478.317,467.1 477,462.5C472.155,452.145 467.322,441.812 462.5,431.5Z" style="fill:rgb(247,144,123);"/>
            </g>
            <g transform="matrix(1.33975,0,0,1.33975,-93.0185,-32.1407)">
                <path d="M436.5,317.5C454.337,341.434 478.337,355.1 508.5,358.5C509.78,370.724 514.114,381.724 521.5,391.5C520.883,391.611 520.383,391.944 520,392.5C481.569,379.233 453.736,354.233 436.5,317.5Z" style="fill:rgb(209,100,88);"/>
            </g>
            <g transform="matrix(1.33975,0,0,1.33975,-93.0185,-32.1407)">
                <path d="M496.5,163.5C537.594,158.094 558.761,182.427 557,224.5C554.814,251.343 540.648,267.509 514.5,273C479.984,277.65 459.484,262.817 453,228.5C447.567,193.153 461.067,170.487 496.5,163.5Z" style="fill:rgb(246,144,123);"/>
            </g>
            <g transform="matrix(1.33975,0,0,1.33975,-93.0185,-32.1407)">
                <path d="M500.5,186.5C516.055,180.561 531.221,193.894 537,211.5C541.317,224.651 537.337,240.807 525.5,248C505.31,260.269 486.039,253.769 480,234.5C473.016,212.217 478.849,194.766 500.5,186.5Z" style="fill:rgb(30,41,46);"/>
                <path d="M511.5,200.5C517.313,196.202 529.98,207.624 522.5,217C514.145,224.653 501.432,214.82 507,205.5C508.193,203.503 509.693,201.836 511.5,200.5Z" style="fill:rgb(244,235,222);"/>
            </g>
            <g transform="matrix(1.33975,0,0,1.33975,-93.0185,-32.1407)">
                <path d="M628.5,215.5L628.5,225.5C622.904,224.29 617.238,223.623 611.5,223.5C607.306,208.516 609.473,194.516 618,181.5C623.063,192.436 626.563,203.77 628.5,215.5Z" style="fill:rgb(245,145,124);"/>
            </g>
            <g transform="matrix(1.33975,0,0,1.33975,-93.0185,-32.1407)">
                <path d="M501.5,149.5C485.321,149.837 470.655,154.671 457.5,164C439.527,164.977 421.694,166.81 404,169.5C404.652,166.998 410.613,158.331 410.5,158.5C426.537,134.486 448.537,118.486 476.5,110.5C505.02,105.143 532.687,108.476 559.5,120.5C560.107,120.376 560.44,120.043 560.5,119.5C582.296,129.962 599.296,145.629 611.5,166.5C606.067,173.7 601.4,181.366 597.5,189.5C588.5,185.5 579.5,185.5 570.5,189.5C556.517,160.998 533.517,147.664 501.5,149.5Z" style="fill:rgb(247,144,123);"/>
            </g>
            <g transform="matrix(1.33975,0,0,1.33975,-93.0185,-32.1407)">
                <path d="M560.5,119.5C560.44,120.043 560.107,120.376 559.5,120.5C532.687,108.476 505.02,105.143 476.5,110.5C505.505,103.737 533.505,106.737 560.5,119.5Z" style="fill:rgb(238,158,135);"/>
            </g>
            <g transform="matrix(1.33975,0,0,1.33975,-93.0185,-32.1407)">
                <path d="M577.5,471.5C578.251,470.427 579.251,470.26 580.5,471C607.976,488.78 623.643,513.946 627.5,546.5C620.318,544.54 612.984,543.207 605.5,542.5C598.564,541.588 596.397,544.254 599,550.5C603.692,556.359 608.192,562.359 612.5,568.5C595.148,582.352 579.648,598.018 566,615.5C570.355,597.425 575.355,579.425 581,561.5C583.968,550.296 586.301,538.963 588,527.5C589.273,511.412 587.273,495.745 582,480.5C580.96,477.177 579.46,474.177 577.5,471.5Z" style="fill:rgb(56,166,163);"/>
            </g>
            <g transform="matrix(1.33975,0,0,1.33975,-93.0185,-32.1407)">
                <path d="M408.5,512.5C406.964,515.092 404.631,516.092 401.5,515.5C403.509,513.935 405.843,512.935 408.5,512.5Z" style="fill:rgb(53,189,189);"/>
            </g>
            <g transform="matrix(1.33975,0,0,1.33975,-93.0185,-32.1407)">
                <path d="M425.5,536.5C414.585,541.011 404.252,539.845 394.5,533C390.403,530.63 386.736,527.797 383.5,524.5C389.182,520.992 395.182,517.992 401.5,515.5C404.631,516.092 406.964,515.092 408.5,512.5C411.231,510.802 414.231,509.469 417.5,508.5C420.787,517.646 423.454,526.98 425.5,536.5Z" style="fill:rgb(246,148,96);"/>
            </g>
            <g transform="matrix(1.33975,0,0,1.33975,-93.0185,-32.1407)">
                <path d="M379.5,527.5C380.221,533.744 380.221,539.91 379.5,546C377.633,546.711 376.133,546.211 375,544.5C374.772,540.083 374.272,535.75 373.5,531.5C375.223,529.782 377.223,528.449 379.5,527.5Z" style="fill:rgb(65,176,169);"/>
            </g>
            <g transform="matrix(1.33975,0,0,1.33975,-93.0185,-32.1407)">
                <path d="M460.5,457.5C461.675,457.281 462.675,457.614 463.5,458.5C467.721,467.049 469.221,476.049 468,485.5C464.167,481.924 460.167,478.59 456,475.5C450.754,478.171 450.088,481.838 454,486.5C480.632,516.134 507.632,545.467 535,574.5C542,584.167 549,593.833 556,603.5C556.839,606.14 556.339,608.473 554.5,610.5C533.837,599.128 512.504,589.628 490.5,582C493.322,573.38 495.988,564.713 498.5,556C498.097,554.527 497.43,553.194 496.5,552C493.743,551.416 491.077,551.75 488.5,553C476.508,558.658 465.175,565.325 454.5,573C453.668,573.688 453.002,573.521 452.5,572.5C442.11,549.664 434.11,525.997 428.5,501.5C432.284,490.635 437.117,480.301 443,470.5C448.099,465.049 453.932,460.715 460.5,457.5Z" style="fill:rgb(56,166,162);"/>
            </g>
            <g transform="matrix(1.33975,0,0,1.33975,-93.0185,-32.1407)">
                <path d="M379.5,527.5C383.72,531.202 388.387,534.369 393.5,537C399.674,544.533 401.507,553.033 399,562.5C398.226,564.939 396.726,566.773 394.5,568C380.945,576.49 368.778,574.99 358,563.5C354.84,556.91 354.673,550.243 357.5,543.5C362.109,538.529 367.443,534.529 373.5,531.5C374.272,535.75 374.772,540.083 375,544.5C376.133,546.211 377.633,546.711 379.5,546C380.221,539.91 380.221,533.744 379.5,527.5Z" style="fill:rgb(247,147,94);"/>
            </g>
            <g transform="matrix(1.33975,0,0,1.33975,-93.0185,-32.1407)">
                <path d="M667.5,554.5C676.025,563.37 683.025,573.37 688.5,584.5C678.965,591.442 669.798,591.108 661,583.5C657.474,574.708 657.808,566.042 662,557.5C663.488,555.84 665.321,554.84 667.5,554.5Z" style="fill:rgb(247,147,93);"/>
            </g>
            <g transform="matrix(1.33975,0,0,1.33975,-93.0185,-32.1407)">
                <path d="M667.5,554.5C665.321,554.84 663.488,555.84 662,557.5C657.808,566.042 657.474,574.708 661,583.5C669.798,591.108 678.965,591.442 688.5,584.5C689.492,586.456 690.492,588.456 691.5,590.5C678.845,600.117 676.512,611.783 684.5,625.5C689.907,630.544 696.24,632.711 703.5,632C705.041,630.629 706.375,629.129 707.5,627.5C711.869,636.977 714.369,646.977 715,657.5C705.983,667.026 695.483,674.359 683.5,679.5C684.93,677.706 687.263,676.206 690.5,675C681.53,654.016 672.53,633.016 663.5,612C662.59,610.251 661.257,609.084 659.5,608.5C658.184,603.863 655.851,599.863 652.5,596.5C651.317,600.175 651.317,603.841 652.5,607.5C641.358,601.825 632.858,604.492 627,615.5C626.333,620.167 626.333,624.833 627,629.5C630.319,635.468 633.652,641.468 637,647.5C639.754,642.834 641.754,637.834 643,632.5C644,631.167 645,631.167 646,632.5C644.708,638.062 644.042,643.728 644,649.5C646.234,647.3 648.734,645.467 651.5,644C653.55,642.035 655.217,639.868 656.5,637.5C657.473,639.948 657.806,642.615 657.5,645.5C653.498,646.989 650.164,649.489 647.5,653C650.914,655.374 654.581,657.207 658.5,658.5C659.434,659.568 659.768,660.901 659.5,662.5C644.667,656.457 642.5,658.791 653,669.5C653.494,671.134 653.66,672.801 653.5,674.5C651.801,674.66 650.134,674.494 648.5,674C645.94,671.029 643.273,668.196 640.5,665.5C637.182,677.732 639.515,688.898 647.5,699C652.164,701.582 657.164,702.749 662.5,702.5C662.666,707.844 662.499,713.177 662,718.5C644.895,732.304 625.729,742.304 604.5,748.5C611.55,739.487 610.55,731.32 601.5,724C588.31,717.959 578.31,721.126 571.5,733.5C570.983,701.611 569.316,669.778 566.5,638C566.428,634.71 566.928,631.544 568,628.5C575.462,619.369 583.295,610.536 591.5,602C602.333,592.5 613.167,583 624,573.5C625.373,571.305 625.706,568.971 625,566.5C622.955,563.577 620.788,560.743 618.5,558C622.567,558.35 626.567,559.35 630.5,561C639.914,568.533 643.747,566.366 642,554.5C640.467,545.034 638.3,535.701 635.5,526.5C635.833,525.833 636.167,525.167 636.5,524.5C643.604,529.434 650.27,534.934 656.5,541C660.403,545.393 664.069,549.893 667.5,554.5Z" style="fill:rgb(77,175,163);"/>
            </g>
            <g transform="matrix(1.33975,0,0,1.33975,-93.0185,-32.1407)">
                <path d="M691.5,567.5C706.832,590.843 717.832,616.176 724.5,643.5C719.677,629.273 714.177,614.606 708,599.5C702.729,588.623 697.229,577.956 691.5,567.5Z" style="fill:rgb(17,20,21);"/>
            </g>
            <g transform="matrix(1.33975,0,0,1.33975,-93.0185,-32.1407)">
                <path d="M383.5,524.5C386.736,527.797 390.403,530.63 394.5,533C404.252,539.845 414.585,541.011 425.5,536.5C431.848,554.198 439.181,571.531 447.5,588.5C448.723,589.614 450.056,589.781 451.5,589C461.671,582.749 471.671,576.249 481.5,569.5C481.833,569.833 482.167,570.167 482.5,570.5C480.346,575.293 479.013,580.293 478.5,585.5C478.288,588.011 478.955,590.178 480.5,592C506.146,598.93 530.146,609.43 552.5,623.5C553.982,627.344 554.815,631.344 555,635.5C557.535,676.822 559.701,718.156 561.5,759.5C526,764.187 490.667,763.187 455.5,756.5C456.673,736.836 447.673,728.002 428.5,730C421.958,733.584 418.291,739.084 417.5,746.5C414.673,745.892 412.007,744.892 409.5,743.5C410.878,742.766 412.378,742.099 414,741.5C415.102,737.584 415.769,733.584 416,729.5C416.823,715.258 416.656,701.092 415.5,687C417.466,680.126 418.466,672.959 418.5,665.5C418.355,662.133 418.022,658.799 417.5,655.5C418.426,644.179 418.593,632.846 418,621.5C417.339,615.523 415.672,609.856 413,604.5C410.743,607.438 409.576,610.771 409.5,614.5C395.039,609.395 384.373,613.728 377.5,627.5C376.635,627.436 375.635,627.103 374.5,626.5C376.238,618.973 375.738,611.64 373,604.5C366.489,596.471 358.322,594.304 348.5,598C335.125,602.581 330.792,611.414 335.5,624.5C334.475,624.897 334.308,625.563 335,626.5C338.333,629.833 341.667,633.167 345,636.5C345.667,637.5 345.667,638.5 345,639.5C344.329,638.748 343.496,638.414 342.5,638.5C332.004,633.084 321.67,633.251 311.5,639C308.533,641.1 306.7,643.934 306,647.5C301.623,668.822 310.123,678.489 331.5,676.5C330.003,677.6 327.67,678.266 324.5,678.5C321.112,677.785 317.778,677.285 314.5,677C316.624,679.556 319.124,680.389 322,679.5C322.233,681.892 323.066,684.392 324.5,687C328.193,688.847 331.86,690.68 335.5,692.5L335.5,693.5C315.939,685.895 298.939,674.562 284.5,659.5C298.345,615.883 321.345,578.049 353.5,546C354.984,545.338 356.317,544.504 357.5,543.5C354.673,550.243 354.84,556.91 358,563.5C368.778,574.99 380.945,576.49 394.5,568C396.726,566.773 398.226,564.939 399,562.5C401.507,553.033 399.674,544.533 393.5,537C388.387,534.369 383.72,531.202 379.5,527.5C380.436,526.026 381.77,525.026 383.5,524.5Z" style="fill:rgb(78,175,163);"/>
            </g>
            <g transform="matrix(1.33975,0,0,1.33975,-93.0185,-32.1407)">
                <path d="M374.5,626.5C373.422,632.812 371.422,638.812 368.5,644.5C365.527,638.828 363.36,632.828 362,626.5C360.333,623.833 358.667,623.833 357,626.5C357.692,631.254 359.025,635.921 361,640.5C361.808,642.579 361.641,644.579 360.5,646.5C350.935,640.604 342.602,633.271 335.5,624.5C330.792,611.414 335.125,602.581 348.5,598C358.322,594.304 366.489,596.471 373,604.5C375.738,611.64 376.238,618.973 374.5,626.5Z" style="fill:rgb(247,146,93);"/>
            </g>
            <g transform="matrix(1.33975,0,0,1.33975,-93.0185,-32.1407)">
                <path d="M691.5,590.5C698.71,601.93 704.043,614.263 707.5,627.5C706.375,629.129 705.041,630.629 703.5,632C700.24,634.9 686.855,629.544 684.5,625.5C676.512,611.783 678.845,600.117 691.5,590.5Z" style="fill:rgb(246,148,96);"/>
            </g>
            <g transform="matrix(1.33975,0,0,1.33975,-93.0185,-32.1407)">
                <path d="M409.5,614.5C407.961,627.275 405.961,639.942 403.5,652.5C395.491,652.996 387.491,653.33 379.5,653.5C379.393,651.097 380.393,649.264 382.5,648C386.084,645.959 389.584,643.792 393,641.5C393.783,639.681 393.283,638.348 391.5,637.5C387.703,639.467 384.036,641.634 380.5,644C378.564,644.813 376.564,645.313 374.5,645.5C375.685,639.542 376.685,633.542 377.5,627.5C384.373,613.728 395.039,609.395 409.5,614.5Z" style="fill:rgb(247,147,94);"/>
            </g>
            <g transform="matrix(1.33975,0,0,1.33975,-93.0185,-32.1407)">
                <path d="M652.5,607.5C654.652,617.384 655.986,627.384 656.5,637.5C655.217,639.868 653.55,642.035 651.5,644C648.734,645.467 646.234,647.3 644,649.5C644.042,643.728 644.708,638.062 646,632.5C645,631.167 644,631.167 643,632.5C641.754,637.834 639.754,642.834 637,647.5C633.652,641.468 630.319,635.468 627,629.5C626.333,624.833 626.333,620.167 627,615.5C632.858,604.492 641.358,601.825 652.5,607.5Z" style="fill:rgb(247,146,93);"/>
            </g>
            <g transform="matrix(1.33975,0,0,1.33975,-93.0185,-32.1407)">
                <path d="M604.5,621.5C607.941,621.301 611.274,621.801 614.5,623C624.274,629.726 630.107,638.893 632,650.5C627.585,648.377 623.418,645.877 619.5,643C614.833,642 613.5,643.667 615.5,648C619.793,649.931 624.126,651.764 628.5,653.5C629.386,654.325 629.719,655.325 629.5,656.5C623.811,657.115 618.144,657.948 612.5,659C596.95,663.581 588.95,657.914 588.5,642C588.098,630.58 593.431,623.747 604.5,621.5Z" style="fill:rgb(248,146,93);"/>
            </g>
            <g transform="matrix(1.33975,0,0,1.33975,-93.0185,-32.1407)">
                <path d="M482.5,624.5C490.82,624.734 496.32,628.734 499,636.5C501.162,645.899 500.995,655.233 498.5,664.5C497.349,665.731 496.183,665.731 495,664.5C493.211,659.12 491.044,653.953 488.5,649C486.359,648.116 484.693,648.616 483.5,650.5C486.995,656.49 489.662,662.823 491.5,669.5C483.596,666.548 476.263,662.548 469.5,657.5C460.197,648.666 460.197,639.833 469.5,631C473.925,628.787 478.259,626.621 482.5,624.5Z" style="fill:rgb(247,145,92);"/>
            </g>
            <g transform="matrix(1.33975,0,0,1.33975,-93.0185,-32.1407)">
                <path d="M335.5,624.5C342.602,633.271 350.935,640.604 360.5,646.5C361.641,644.579 361.808,642.579 361,640.5C359.025,635.921 357.692,631.254 357,626.5C358.667,623.833 360.333,623.833 362,626.5C363.36,632.828 365.527,638.828 368.5,644.5C371.422,638.812 373.422,632.812 374.5,626.5C375.635,627.103 376.635,627.436 377.5,627.5C376.685,633.542 375.685,639.542 374.5,645.5C376.564,645.313 378.564,644.813 380.5,644C384.036,641.634 387.703,639.467 391.5,637.5C393.283,638.348 393.783,639.681 393,641.5C389.584,643.792 386.084,645.959 382.5,648C380.393,649.264 379.393,651.097 379.5,653.5C387.491,653.33 395.491,652.996 403.5,652.5L403.5,656.5C395.012,655.989 386.679,656.822 378.5,659C384.408,661.535 389.908,664.702 395,668.5C395.723,671.125 394.723,672.792 392,673.5C388.253,671.374 384.753,668.874 381.5,666C379.655,664.872 377.655,664.372 375.5,664.5C377.719,673.651 381.219,682.317 386,690.5C389.184,694.004 393.018,696.337 397.5,697.5C396.647,702.47 395.98,707.47 395.5,712.5C387.319,711.597 379.319,709.931 371.5,707.5C378.499,693.623 377.999,679.956 370,666.5C367.422,672.241 365.255,678.074 363.5,684C360.647,684.659 358.98,683.492 358.5,680.5C359.606,676.35 360.606,672.184 361.5,668C361.167,666.833 360.833,665.667 360.5,664.5C351.559,669.611 344.059,676.278 338,684.5C337.059,687.154 336.226,689.821 335.5,692.5C331.86,690.68 328.193,688.847 324.5,687C323.066,684.392 322.233,681.892 322,679.5C319.124,680.389 316.624,679.556 314.5,677C317.778,677.285 321.112,677.785 324.5,678.5C327.67,678.266 330.003,677.6 331.5,676.5C341.219,672.799 349.886,667.299 357.5,660C350.508,659.5 343.508,659.334 336.5,659.5C336.104,656.956 336.771,654.789 338.5,653C344.48,653.072 350.48,653.239 356.5,653.5C356.649,652.448 356.483,651.448 356,650.5C351.522,646.365 347.022,642.365 342.5,638.5C343.496,638.414 344.329,638.748 345,639.5C345.667,638.5 345.667,637.5 345,636.5C341.667,633.167 338.333,629.833 335,626.5C334.308,625.563 334.475,624.897 335.5,624.5Z" style="fill:rgb(71,173,164);"/>
            </g>
            <g transform="matrix(1.33975,0,0,1.33975,-93.0185,-32.1407)">
                <path d="M342.5,638.5C347.022,642.365 351.522,646.365 356,650.5C356.483,651.448 356.649,652.448 356.5,653.5C350.48,653.239 344.48,653.072 338.5,653C336.771,654.789 336.104,656.956 336.5,659.5C343.508,659.334 350.508,659.5 357.5,660C349.886,667.299 341.219,672.799 331.5,676.5C310.123,678.489 301.623,668.822 306,647.5C306.7,643.934 308.533,641.1 311.5,639C321.67,633.251 332.004,633.084 342.5,638.5Z" style="fill:rgb(248,146,93);"/>
            </g>
            <g transform="matrix(1.33975,0,0,1.33975,-93.0185,-32.1407)">
                <path d="M657.5,645.5C658.485,649.634 658.818,653.968 658.5,658.5C654.581,657.207 650.914,655.374 647.5,653C650.164,649.489 653.498,646.989 657.5,645.5Z" style="fill:rgb(242,148,93);"/>
            </g>
            <g transform="matrix(1.33975,0,0,1.33975,-93.0185,-32.1407)">
                <path d="M517.5,634.5C526.331,633.759 534.164,636.093 541,641.5C545.921,649.71 545.587,657.71 540,665.5C534.345,668.526 528.512,670.859 522.5,672.5C517.754,672.888 513.087,672.888 508.5,672.5C511.193,667.64 515.026,663.973 520,661.5C520.833,658.333 519.667,657.167 516.5,658C513.257,661.198 509.757,664.031 506,666.5C504.053,665.956 503.22,664.623 503.5,662.5C503.941,655.903 505.441,649.569 508,643.5C510.406,639.592 513.572,636.592 517.5,634.5Z" style="fill:rgb(247,147,94);"/>
            </g>
            <g transform="matrix(1.33975,0,0,1.33975,-93.0185,-32.1407)">
                <path d="M659.5,608.5C661.257,609.084 662.59,610.251 663.5,612C672.53,633.016 681.53,654.016 690.5,675C687.263,676.206 684.93,677.706 683.5,679.5C680.203,681.601 676.537,682.935 672.5,683.5C671.435,667.419 669.602,651.419 667,635.5C665.269,626.238 662.769,617.238 659.5,608.5Z" style="fill:rgb(49,160,156);"/>
            </g>
            <g transform="matrix(1.33975,0,0,1.33975,-93.0185,-32.1407)">
                <path d="M517.5,634.5C513.572,636.592 510.406,639.592 508,643.5C505.441,649.569 503.941,655.903 503.5,662.5C503.22,664.623 504.053,665.956 506,666.5C509.757,664.031 513.257,661.198 516.5,658C519.667,657.167 520.833,658.333 520,661.5C515.026,663.973 511.193,667.64 508.5,672.5C513.087,672.888 517.754,672.888 522.5,672.5C526.894,672.982 530.561,673.649 533.5,674.5C526.116,674.84 518.783,675.673 511.5,677C509.998,677.583 508.665,678.416 507.5,679.5C511.79,681.097 516.124,682.597 520.5,684C523.439,686.973 523.105,689.473 519.5,691.5C515.127,688.314 510.46,685.647 505.5,683.5C505.167,684 504.833,684.5 504.5,685C506.377,689.916 508.377,694.75 510.5,699.5C509.624,699.369 508.957,699.702 508.5,700.5C511.93,708.269 512.43,716.269 510,724.5C508.471,725.729 507.304,727.229 506.5,729C505.563,729.692 504.897,729.525 504.5,728.5C510.248,721.816 511.748,714.15 509,705.5C506.786,698.742 503.786,692.408 500,686.5C499.667,686.833 499.333,687.167 499,687.5C498.667,692.167 498.333,696.833 498,701.5C496.688,703.658 495.022,703.991 493,702.5C492.781,697.485 492.781,692.485 493,687.5C492.667,687.167 492.333,686.833 492,686.5C490.629,688.041 489.129,689.375 487.5,690.5C487.631,689.761 487.464,689.094 487,688.5C482.075,695.427 475.908,700.927 468.5,705C464.594,706.434 460.594,706.767 456.5,706C455.262,705.31 455.262,704.81 456.5,704.5C466.274,705.695 474.108,702.362 480,694.5C483.025,690.976 485.858,687.309 488.5,683.5C482.623,683.142 476.789,682.809 471,682.5C470.28,680.888 470.446,679.388 471.5,678C476.167,677.667 480.833,677.333 485.5,677C486.86,675.062 486.527,673.396 484.5,672C480.326,669.412 475.993,667.079 471.5,665C463.773,662.207 456.773,663.374 450.5,668.5C449.668,667.671 450.001,666.838 451.5,666C458.721,661.941 466.221,661.441 474,664.5C474.667,663.833 474.667,663.167 474,662.5C472.075,661.12 470.241,659.62 468.5,658C468.728,657.601 469.062,657.435 469.5,657.5C476.263,662.548 483.596,666.548 491.5,669.5C489.662,662.823 486.995,656.49 483.5,650.5C484.693,648.616 486.359,648.116 488.5,649C491.044,653.953 493.211,659.12 495,664.5C496.183,665.731 497.349,665.731 498.5,664.5C500.995,655.233 501.162,645.899 499,636.5C496.32,628.734 490.82,624.734 482.5,624.5C484.232,623.617 486.732,622.95 490,622.5C491.982,622.99 493.649,623.99 495,625.5C495.85,624.576 496.85,624.576 498,625.5C500.459,625.11 502.126,623.776 503,621.5C504.628,622.819 504.461,624.152 502.5,625.5C503.72,627.823 502.887,629.156 500,629.5C498.757,627.237 496.924,626.403 494.5,627C496.378,628.543 497.878,630.376 499,632.5C500.085,631.707 501.252,631.04 502.5,630.5C502.474,632.374 502.807,634.04 503.5,635.5C504.913,633.632 506.08,631.632 507,629.5C509.843,632.567 513.343,634.233 517.5,634.5Z" style="fill:rgb(68,173,166);"/>
            </g>
            <g transform="matrix(1.33975,0,0,1.33975,-93.0185,-32.1407)">
                <path d="M659.5,662.5C660.869,675.8 661.869,689.133 662.5,702.5C657.164,702.749 652.164,701.582 647.5,699C639.515,688.898 637.182,677.732 640.5,665.5C643.273,668.196 645.94,671.029 648.5,674C650.134,674.494 651.801,674.66 653.5,674.5C653.66,672.801 653.494,671.134 653,669.5C642.5,658.791 644.667,656.457 659.5,662.5Z" style="fill:rgb(246,146,94);"/>
            </g>
            <g transform="matrix(1.33975,0,0,1.33975,-93.0185,-32.1407)">
                <path d="M403.5,656.5C401.177,670.107 399.177,683.773 397.5,697.5C393.018,696.337 389.184,694.004 386,690.5C381.219,682.317 377.719,673.651 375.5,664.5C377.655,664.372 379.655,664.872 381.5,666C384.753,668.874 388.253,671.374 392,673.5C394.723,672.792 395.723,671.125 395,668.5C389.908,664.702 384.408,661.535 378.5,659C386.679,656.822 395.012,655.989 403.5,656.5Z" style="fill:rgb(246,147,92);"/>
            </g>
            <g transform="matrix(1.33975,0,0,1.33975,-93.0185,-32.1407)">
                <path d="M619.5,661.5L628.5,661.5C627.051,665.472 624.551,668.806 621,671.5C618.457,675.256 619.29,677.089 623.5,677C626.361,674.106 628.861,670.939 631,667.5C633.873,664.444 635.373,664.944 635.5,669C634.978,678.254 632.811,687.087 629,695.5C621.062,700.548 612.895,700.715 604.5,696C595.714,687.762 595.214,678.928 603,669.5C607.868,665.315 613.368,662.648 619.5,661.5Z" style="fill:rgb(248,146,93);"/>
            </g>
            <g transform="matrix(1.33975,0,0,1.33975,-93.0185,-32.1407)">
                <path d="M456.5,704.5C445.34,698.892 441.173,689.892 444,677.5C445.611,674.062 447.777,671.062 450.5,668.5C456.773,663.374 463.773,662.207 471.5,665C475.993,667.079 480.326,669.412 484.5,672C486.527,673.396 486.86,675.062 485.5,677C480.833,677.333 476.167,677.667 471.5,678C470.446,679.388 470.28,680.888 471,682.5C476.789,682.809 482.623,683.142 488.5,683.5C485.858,687.309 483.025,690.976 480,694.5C474.108,702.362 466.274,705.695 456.5,704.5Z" style="fill:rgb(248,146,94);"/>
            </g>
            <g transform="matrix(1.33975,0,0,1.33975,-93.0185,-32.1407)">
                <path d="M371.5,707.5C358.705,704.574 346.705,699.907 335.5,693.5L335.5,692.5C336.226,689.821 337.059,687.154 338,684.5C344.059,676.278 351.559,669.611 360.5,664.5C360.833,665.667 361.167,666.833 361.5,668C360.606,672.184 359.606,676.35 358.5,680.5C358.98,683.492 360.647,684.659 363.5,684C365.255,678.074 367.422,672.241 370,666.5C377.999,679.956 378.499,693.623 371.5,707.5Z" style="fill:rgb(247,146,94);"/>
            </g>
            <g transform="matrix(1.33975,0,0,1.33975,-93.0185,-32.1407)">
                <path d="M533.5,674.5C543.171,677.47 547.671,684.136 547,694.5C542.026,712.822 531.526,716.989 515.5,707C513.686,704.521 512.019,702.021 510.5,699.5C508.377,694.75 506.377,689.916 504.5,685C504.833,684.5 505.167,684 505.5,683.5C510.46,685.647 515.127,688.314 519.5,691.5C523.105,689.473 523.439,686.973 520.5,684C516.124,682.597 511.79,681.097 507.5,679.5C508.665,678.416 509.998,677.583 511.5,677C518.783,675.673 526.116,674.84 533.5,674.5Z" style="fill:rgb(247,146,93);"/>
            </g>
            <g transform="matrix(1.33975,0,0,1.33975,-93.0185,-32.1407)">
                <path d="M504.5,728.5C488.72,734.949 479.387,729.949 476.5,713.5C476.842,711.133 477.342,708.8 478,706.5C480.592,700.761 483.759,695.427 487.5,690.5C489.129,689.375 490.629,688.041 492,686.5C492.333,686.833 492.667,687.167 493,687.5C492.781,692.485 492.781,697.485 493,702.5C495.022,703.991 496.688,703.658 498,701.5C498.333,696.833 498.667,692.167 499,687.5C499.333,687.167 499.667,686.833 500,686.5C503.786,692.408 506.786,698.742 509,705.5C511.748,714.15 510.248,721.816 504.5,728.5Z" style="fill:rgb(248,146,93);"/>
            </g>
            <g transform="matrix(1.33975,0,0,1.33975,-93.0185,-32.1407)">
                <path d="M417.5,655.5C418.022,658.799 418.355,662.133 418.5,665.5C418.466,672.959 417.466,680.126 415.5,687C416.656,701.092 416.823,715.258 416,729.5C415.769,733.584 415.102,737.584 414,741.5C412.378,742.099 410.878,742.766 409.5,743.5C402.865,741.62 396.532,738.953 390.5,735.5C389.511,731.893 389.177,728.226 389.5,724.5C396.549,726.356 401.382,724.022 404,717.5C410.376,697.109 414.876,676.443 417.5,655.5Z" style="fill:rgb(49,159,156);"/>
            </g>
            <g transform="matrix(1.33975,0,0,1.33975,-93.0185,-32.1407)">
                <path d="M455.5,756.5C442.689,753.797 430.022,750.464 417.5,746.5C418.291,739.084 421.958,733.584 428.5,730C447.673,728.002 456.673,736.836 455.5,756.5Z" style="fill:rgb(247,147,95);"/>
            </g>
            <g transform="matrix(1.33975,0,0,1.33975,-93.0185,-32.1407)">
                <path d="M604.5,748.5C599.141,751.175 593.474,752.842 587.5,753.5C588.954,751.429 590.287,749.262 591.5,747C591.387,745.72 590.72,744.887 589.5,744.5C586.102,747.627 583.435,751.293 581.5,755.5C579.283,756.369 576.95,756.702 574.5,756.5C574.706,753.505 574.04,750.838 572.5,748.5C571.836,743.527 571.503,738.527 571.5,733.5C578.31,721.126 588.31,717.959 601.5,724C610.55,731.32 611.55,739.487 604.5,748.5Z" style="fill:rgb(247,147,95);"/>
            </g>
            <g transform="matrix(1.33975,0,0,1.33975,-93.0185,-32.1407)">
                <path d="M587.5,753.5C585.786,754.738 583.786,755.405 581.5,755.5C583.435,751.293 586.102,747.627 589.5,744.5C590.72,744.887 591.387,745.72 591.5,747C590.287,749.262 588.954,751.429 587.5,753.5Z" style="fill:rgb(72,167,163);"/>
            </g>
            <g transform="matrix(1.33975,0,0,1.33975,-93.0185,-32.1407)">
                <path d="M572.5,748.5C574.04,750.838 574.706,753.505 574.5,756.5C574.44,757.043 574.107,757.376 573.5,757.5C572.516,754.572 572.183,751.572 572.5,748.5Z" style="fill:rgb(81,187,177);"/>
            </g>
            <g transform="matrix(1.57294,0,0,1.33975,-241.325,-32.1407)">
                <path d="M620,182C615.998,192.944 615.375,199.623 616.445,209C617.262,216.17 625.061,224.644 628.852,228C632.815,231.509 636,225 636,225L632,199C632,199 624.114,170.748 620,182Z" style="fill:rgb(30,41,46);"/>
            </g>
            <g transform="matrix(1.25132,0.478663,-0.478663,1.25132,29.171,-322.596)">
                <path d="M660.002,203.259C659.957,203.317 659.912,203.375 659.866,203.433C651.511,211.086 638.798,201.253 644.366,191.933C645.559,189.936 647.059,188.269 648.866,186.933C648.922,186.891 648.979,186.851 649.036,186.813C652.775,191.917 653.75,191.293 656.605,197.057C658.296,200.472 659.311,202.066 660.002,203.259Z" style="fill:rgb(244,235,222);"/>
            </g>
        </g>
    </g>
</svg>
